<svg xmlns="http://www.w3.org/2000/svg" viewBox="0 0 32 32">
  <rect width="32" height="32" rx="6" fill="#0A0A0B"/>
  <g transform="translate(4, 6)">
    <rect x="0" y="0" width="5" height="5" rx="1" fill="#fff"/>
    <rect x="7" y="0" width="5" height="5" rx="1" fill="#fff"/>
    <rect x="14" y="0" width="5" height="5" rx="1" fill="#fff"/>
    <rect x="21" y="0" width="5" height="5" rx="1" fill="#4ADE80"/>
    <rect x="0" y="7" width="5" height="5" rx="1" fill="#2a2a2e"/>
    <rect x="7" y="7" width="5" height="5" rx="1" fill="#2a2a2e"/>
    <rect x="14" y="7" width="5" height="5" rx="1" fill="#2a2a2e"/>
    <rect x="21" y="7" width="5" height="5" rx="1" fill="#2a2a2e"/>
    <rect x="0" y="14" width="5" height="5" rx="1" fill="#2a2a2e"/>
    <rect x="7" y="14" width="5" height="5" rx="1" fill="#2a2a2e"/>
    <rect x="14" y="14" width="5" height="5" rx="1" fill="#2a2a2e"/>
    <rect x="21" y="14" width="5" height="5" rx="1" fill="#2a2a2e"/>
  </g>
</svg>
